<?xml version="1.0" encoding="UTF-8"?>
<svg width="181px" height="167px" viewBox="0 0 181 167" version="1.1" xmlns="http://www.w3.org/2000/svg" xmlns:xlink="http://www.w3.org/1999/xlink">
    <!-- Generator: Sketch 52.6 (67491) - http://www.bohemiancoding.com/sketch -->
    <title>Group 31</title>
    <desc>Created with Sketch.</desc>
    <defs>
        <polygon id="path-1" points="0 0.0688199023 180.472739 0.0688199023 180.472739 167 0 167"></polygon>
    </defs>
    <g id="Page-1" stroke="none" stroke-width="1" fill="none" fill-rule="evenodd">
        <g id="Group-31" transform="translate(90.500000, 83.500000) scale(-1, 1) translate(-90.500000, -83.500000) ">
            <g id="Group-30">
                <path d="M124.007854,29.0083682 C123.972344,28.9512591 123.946697,28.8921806 123.911187,28.8370408 C124.238669,28.2383795 124.589825,27.6554724 124.952817,27.0804424 C125.116558,27.119828 125.290163,27.1414901 125.459823,27.1710293 C124.962681,27.7775678 124.481322,28.3939526 124.007854,29.0083682 M103.09634,117.643722 C101.760764,118.762273 100.26934,119.697681 98.6891393,120.505086 L98.6812481,120.505086 C100.302877,119.185668 101.999471,117.956837 103.763141,116.806777 C103.53627,117.108077 103.313346,117.389684 103.09634,117.643722 M102.603143,151.984038 C102.561715,151.800895 102.534096,151.623659 102.514368,151.448393 C102.780694,151.29479 103.039129,151.123462 103.285727,150.93638 C103.413958,151.229803 103.559944,151.519288 103.729603,151.791048 C103.350829,151.863912 102.977972,151.928898 102.603143,151.984038 M100.253557,19.219074 C100.859202,19.2505825 101.462874,19.2722446 102.07641,19.2840603 C102.384164,19.7350256 102.760966,20.1544823 103.232462,20.5089529 C103.220625,20.5128914 103.204843,20.51683 103.193006,20.5187993 C103.035183,20.4065503 102.889197,20.2903627 102.711647,20.1840215 C101.918587,19.6976092 101.082127,19.4297871 100.225938,19.2939067 C100.237775,19.2702753 100.245666,19.2446747 100.253557,19.219074 M178.452756,111.308546 C178.190376,111.009215 177.912213,110.786686 177.628132,110.599605 C176.428679,108.789836 175.596164,106.42473 174.455895,104.735087 C173.909434,103.923743 173.335354,103.138 172.729709,102.373919 C174.89188,95.2116455 175.14637,87.4999425 175.542899,80.0856008 C176.024259,71.0052476 175.173989,61.7496285 172.869776,52.9528518 C172.68828,52.2872349 172.398281,51.7023586 172.025425,51.200192 C171.015359,44.3805731 169.170806,37.665326 165.953195,31.1194371 C165.394897,29.9831621 164.489389,29.2446819 163.439867,28.8331022 C161.983952,26.5054125 160.299195,24.4278214 158.365866,22.811042 C156.110973,20.3395947 152.993974,18.4136382 149.634322,17.1158823 C146.848751,13.2816928 140.437202,11.4817703 136.164151,10.7787371 C134.939052,10.5759012 133.423953,10.4557751 131.810216,10.4577444 C131.348584,9.72123338 130.626545,9.08121717 129.590833,8.61252837 C124.035473,6.09972624 118.779975,6.89137707 113.064819,6.11744977 C107.840886,4.60110366 102.480831,4.68775201 97.0892112,4.82954022 C90.9439879,2.16510348 83.524346,3.12808172 77.0279671,3.36045684 C71.7862791,3.54950778 65.5720084,4.13241486 60.7820879,6.85396074 C55.5739373,5.16431793 50.1625898,7.13950643 45.1694726,8.9453368 C37.4401035,6.36164057 29.010396,12.9646386 23.137417,17.9213181 C22.5909557,18.3821297 22.0622495,18.9020198 21.5572167,19.457357 C19.6574254,21.0701978 18.0160688,22.9666151 16.6114463,25.0560219 C15.7394756,25.7137617 14.9187973,26.5940301 14.1987311,27.7381822 C11.0087388,32.8228648 9.21547778,38.7444918 7.48731869,44.4967606 C0.943592999,53.8764444 1.39141505,68.1005587 3.05447225,78.8548004 C3.46678418,81.5212064 4.07637455,84.3786326 5.6210647,86.5330257 C6.7041233,91.454258 8.21527612,96.2514257 10.8607799,100.575966 C11.1922077,101.676794 11.5749279,102.80913 12.0030221,103.941467 C10.9041812,104.650408 10.0381289,105.688219 9.72051058,106.99976 C8.38493557,112.525561 9.05370947,117.81111 9.7678574,123.169523 C9.29438916,127.464524 10.1032307,131.980085 11.1961533,136.131328 C11.2237723,138.906045 13.0268972,141.659099 16.6134191,141.659099 L16.9882481,141.659099 C17.2111728,141.659099 17.4321246,141.641376 17.6511037,141.617744 C21.7702774,141.430663 25.808567,140.215617 29.7580812,138.652008 C32.7863052,139.370795 35.8066381,138.795765 39.0518683,137.968667 C42.2024049,137.161262 45.3233498,136.251455 48.4442946,135.33377 C50.5749017,135.763073 52.7528556,135.960001 54.9446191,135.983632 C59.2689623,136.794976 63.6189518,137.064767 68.0951995,137.257757 C71.6797487,137.409392 75.6213718,137.696907 79.2000027,136.842239 C80.2297961,136.75559 81.2536712,136.641372 82.279519,136.501553 C82.4373418,136.562601 82.591219,136.621679 82.7411506,136.676819 C83.6999238,137.610258 84.9644785,138.246336 86.4401212,138.303445 C87.3061736,138.336923 88.1702531,138.303445 89.0303871,138.248305 C91.5141226,138.547636 94.0313954,138.433418 96.5151309,137.730384 C96.5999606,137.706753 96.6709809,137.669337 96.751865,137.643736 C96.4421379,138.695332 96.1580569,139.758743 95.8798943,140.804431 C95.7713912,140.889111 95.6530241,140.967882 95.5484666,141.058469 C90.6204513,145.359378 90.9282056,150.658712 92.2854813,156.359779 C92.2657534,156.802868 92.3052091,157.243986 92.415685,157.687075 C92.827997,160.979712 94.6705775,162.913545 98.014447,163.277862 C99.2987296,163.415712 100.565257,163.42162 101.817975,163.334972 C102.916816,163.953326 104.283956,164.197516 105.852319,163.821384 C111.709516,162.423195 118.105283,161.489756 123.567923,158.797749 C124.771321,158.445248 125.968801,158.092746 127.1722,157.740245 C128.245394,158.268012 129.509949,158.390108 130.867225,157.858402 C133.240484,156.926932 135.594016,155.952138 137.967276,155.042331 C138.499927,154.855249 139.026661,154.670137 139.555367,154.483055 C141.820124,153.878486 144.075016,153.191207 146.290453,152.336539 C146.379228,152.312908 146.464058,152.289276 146.552833,152.267614 C146.544942,152.257768 146.540996,152.247921 146.537051,152.238075 C146.986846,152.062809 147.442559,151.89542 147.888408,151.702431 C147.98902,151.663045 148.058068,151.603967 148.154734,151.556704 C149.152963,151.422793 150.147246,151.249496 151.137584,151.038783 C156.373354,150.684313 161.421709,149.463359 164.045512,145.166388 C164.816871,143.90211 165.242992,142.629955 165.471835,141.312506 C167.235504,134.768586 165.748025,127.828841 165.598093,121.158888 C165.562583,119.597248 165.016122,118.376294 164.183607,117.492087 C164.323675,116.233717 164.430205,114.973377 164.477552,113.703191 C164.495307,113.234502 164.445987,112.80323 164.361158,112.389681 C165.319931,112.956834 166.361561,113.457031 167.470266,113.876488 C168.476386,114.260497 169.583118,114.211265 170.614884,113.860733 C171.33495,115.225445 172.133928,116.535017 173.282088,117.590551 C175.519226,119.648449 180.429486,118.46885 179.969827,114.823712 C179.788331,113.330997 179.447039,112.44679 178.452756,111.308546" id="Fill-1" fill="#E8B56B"></path>
                <path d="M160.492597,135.165582 C160.196906,135.00994 159.865733,134.921283 159.499076,134.966597 C159.461622,134.970537 159.426139,134.982358 159.390656,134.988268 C159.491191,134.836567 159.583841,134.676985 159.680433,134.519373 C159.987951,134.320388 160.265901,134.105642 160.51231,133.865283 C160.508367,134.296746 160.504425,134.730179 160.492597,135.165582 M159.684376,141.678894 C159.506961,141.466118 159.292092,141.294715 159.053568,141.174536 C159.305891,140.920387 159.5523,140.666237 159.792796,140.404208 C159.76914,140.82976 159.733657,141.255312 159.684376,141.678894 M146.701576,143.532804 C146.612868,143.576147 146.528104,143.621461 146.439396,143.662834 C146.486707,142.709282 146.486707,141.76164 146.466994,140.880984 C146.559644,140.888864 146.652294,140.906596 146.733116,140.906596 C146.928272,141.62373 146.867162,142.595013 146.701576,143.532804 M101.908353,95.7921559 C96.972287,95.8177679 92.0559336,96.0758574 87.267713,97.3860064 C86.920769,97.4786034 86.6388771,97.6283347 86.4121808,97.8154988 C86.1657717,97.8943048 85.9154201,97.9750809 85.6729536,98.0597973 L85.0145486,98.0597973 C78.446269,97.0865437 71.7400004,97.30129 65.0928699,96.7693498 C61.7909886,96.5014095 58.4674234,96.3142454 55.1458294,96.1014693 C53.9196979,95.7310813 52.6876527,95.3725142 51.4496936,95.0513799 C43.3714194,92.9472609 35.2754037,90.7958583 27.3745439,88.079023 C30.8459546,88.2878588 34.3193366,88.5282169 37.8045461,88.7291721 C37.9819607,88.7606945 38.1613465,88.7863064 38.338761,88.8138885 C47.8600066,90.3663658 57.2077803,93.4713205 66.9655786,92.4566938 C68.7476089,92.27347 69.6208825,90.3624255 68.9210808,89.0798586 C69.2049441,89.0818288 69.4828935,89.0877392 69.768728,89.0897094 C74.7067653,89.1271422 79.7670215,89.5073809 84.6715472,88.8217691 C88.1863259,88.7744855 91.6991333,88.740993 95.2099694,88.7291721 C95.0739517,88.9419482 94.9872157,89.1586646 94.9438477,89.3832615 C93.7512279,89.6709033 92.5566368,89.9703659 91.3719021,90.3013509 C88.5943793,91.0736493 89.7732002,95.3922157 92.5605794,94.6140069 C95.9176562,93.6801563 99.3062735,92.9236191 102.736287,92.3739476 C102.578586,93.5363354 102.328234,94.6770516 101.908353,95.7921559 M160.928248,124.840031 C160.788288,124.934598 160.650299,125.040987 160.52808,125.182837 C159.384742,126.479195 159.05554,126.983553 158.556808,128.486777 C158.316312,128.589225 158.093559,128.721225 157.912202,128.910359 C157.409527,129.45018 157.007388,129.938777 156.607219,130.478597 C155.617641,130.738657 154.683257,131.095254 153.774501,131.518836 C153.72719,131.526717 153.681851,131.542478 153.638483,131.552329 C151.420802,131.30803 149.226776,131.715851 147.032749,132.255672 C146.652294,132.287194 146.261982,132.312806 145.877584,132.342358 C143.632304,132.519672 140.726649,132.454657 138.250731,133.071313 C138.181736,130.783971 135.047413,128.52224 131.751446,126.739255 C131.639083,126.634837 131.528692,126.522538 131.408444,126.422061 C131.558261,125.74433 131.4321,125.011434 130.858459,124.436151 C129.892536,123.468808 128.952239,122.491614 128.035597,121.506539 C126.342274,117.428331 123.042364,114.467197 119.919869,111.346481 C118.24823,108.832571 116.643614,106.338363 114.386507,104.236214 C113.702476,102.790125 113.055898,101.326304 112.51577,99.8230806 C112.712897,95.7606335 111.315265,91.3179478 110.167984,87.761829 C110.140387,87.6712021 110.09899,87.5943663 110.059564,87.5135902 C111.084626,86.7275008 111.372432,85.155322 110.337514,84.1643371 C108.711214,82.6059493 106.832591,82.4128747 104.650393,82.3892329 C103.03395,82.3734718 102.324292,83.7742476 102.521419,85.009531 C100.745302,85.4666055 99.020439,86.0340084 97.4434211,86.9580082 C97.6740599,85.7089338 96.9683444,84.2608744 95.3243032,84.254964 C91.6281675,84.2372326 87.9399169,84.1288744 84.2516662,83.9614118 C77.2181663,82.3951434 70.0407636,82.257233 62.8613895,82.3123971 C60.8901171,82.1094718 58.9188447,81.8966957 56.9475723,81.6720987 C50.6395007,80.9490541 44.3334003,80.2575318 38.035185,79.4734126 C31.7369697,78.6912635 25.5865999,77.0757414 19.2075624,77.5446368 C18.7265719,77.5761592 18.3027484,77.745592 17.9518619,77.9958009 C17.5359234,77.6313233 17.098301,77.2609354 16.642937,76.9023683 C16.5286032,71.3938319 16.2585389,65.8892359 15.8504855,60.3885802 C15.8426004,60.2605205 15.8189452,60.1423116 15.7933186,60.0241026 C15.8110601,59.7719236 15.8307728,59.5217147 15.8504855,59.2695356 C16.7789548,47.3186124 18.1903859,33.0251821 24.1239158,22.3666765 C25.5018352,19.8291247 21.6677104,17.5811848 20.2621931,20.1049456 C19.9014503,20.7531246 19.5584489,21.4150946 19.2272751,22.0869154 C19.1622231,22.2110348 19.103085,22.3351541 19.038033,22.4632138 C18.6220945,22.3981989 18.1726444,22.4474526 17.7054529,22.6602287 C13.9639779,24.3781986 13.1045031,29.6562275 12.0005906,33.2182567 C10.18702,39.0814198 9.23883793,45.3642246 8.55086387,51.4539549 C7.04086922,64.7879227 6.02566393,78.2775322 8.4700417,91.5622462 C8.60014568,92.2754401 9.00425652,92.7246341 9.51284479,92.9649922 C9.39062591,98.3572898 11.0681787,103.39102 14.6460381,107.463318 C14.8037399,107.648512 14.9732693,107.788393 15.1467413,107.898721 C15.1349137,107.973587 15.1152009,108.040572 15.1073158,108.117407 C14.9949533,109.309348 14.9141311,110.499317 14.8451366,111.687317 C14.3404909,111.917825 13.9107535,112.374899 13.6939135,113.119616 C13.2819176,114.526302 13.1005605,115.923137 13.0591638,117.318003 C11.9079407,125.115852 11.0149544,133.193463 13.3213431,140.782476 C13.7175688,142.086715 15.2886729,142.663968 16.4320109,142.246297 C16.9287715,142.427551 17.4945267,142.42361 18.0110001,142.262058 C19.1227977,142.628506 20.5559127,142.067013 20.9935352,140.782476 C21.0447883,140.636685 21.0782999,140.486954 21.1256104,140.341163 C22.1802412,141.862118 24.5635095,141.436566 25.0977243,139.663432 C25.1213796,139.598417 25.1332072,139.531432 25.1529199,139.466417 C25.4959213,139.974715 25.8921471,140.327372 26.325827,140.542118 C26.8462429,140.863252 27.4967628,140.981461 28.1827656,140.764745 C29.1920571,140.605163 30.2545729,140.081103 31.2362665,139.430954 C32.0858849,139.127551 32.9453597,138.871432 33.8107483,138.621223 C34.1734624,138.595611 34.5282914,138.497103 34.8555227,138.31979 C36.5173053,137.841044 38.1771166,137.334716 39.7403356,136.526955 C41.118255,135.813761 41.0650307,134.062298 40.1956996,133.012209 C39.9709745,132.716687 39.7561058,132.421164 39.533352,132.125642 C40.1365614,132.342358 40.7535696,132.539373 41.3764917,132.696985 C41.530251,132.874299 41.7234357,133.033881 41.9580171,133.169821 C45.5082787,135.197104 49.9594117,135.579313 54.2784695,135.679791 C59.1534261,136.85991 64.0500668,136.637283 69.0334434,136.481641 C70.2378908,136.446178 71.4383957,136.47179 72.6448144,136.519074 C74.4386723,136.647134 76.2364727,136.765343 78.0303306,136.871731 C80.9261297,137.096328 83.8239001,137.315014 86.7433545,137.204686 C86.8852861,137.198775 87.0232752,137.181044 87.1514079,137.155432 C91.1057803,141.501581 97.6090079,135.772388 98.6025292,131.459732 C98.6636387,131.189821 98.6754663,130.935672 98.6557536,130.699254 C99.9765061,127.883911 101.318943,125.0863 102.332177,122.138957 C102.594356,121.37848 102.344004,120.647554 101.855129,120.113644 C102.05817,119.451674 101.935951,118.775913 101.612662,118.214421 C101.912296,117.865704 102.209958,117.513048 102.501706,117.158421 C102.610126,117.030361 102.687006,116.900331 102.759943,116.768331 C105.162924,119.607316 108.311046,122.251256 110.694314,124.002718 C111.441426,125.029166 112.257533,125.968927 113.142634,126.770777 C113.929172,127.574598 114.753164,128.331135 115.600811,129.020687 C116.397205,130.480568 117.779067,131.772985 118.91452,132.482239 C122.311022,134.590298 126.091923,135.372447 129.9911,135.616746 C131.485324,136.221582 133.129365,136.568328 134.574308,136.436328 C134.611762,136.633343 134.680757,136.824447 134.773406,137.009641 C133.888305,137.777999 133.342263,138.906894 133.379717,140.559849 C133.411257,141.89167 134.385066,142.650177 135.617111,142.799909 C136.082331,142.853103 136.521925,142.851133 136.941806,142.82355 C136.255803,146.592445 136.159211,150.548504 138.51291,153.328384 C139.59711,154.618832 141.676802,153.893817 142.197218,152.47137 C146.330976,152.296026 151.686923,151.454773 155.584129,149.066952 C157.316877,148.726117 159.08708,148.428624 160.646356,147.766654 C161.413181,147.437639 162.020333,146.988445 162.505266,146.448624 C163.59538,146.417102 164.681551,145.699968 164.720976,144.289341 C164.797856,138.304029 165.308416,132.366 164.720976,126.392509 C164.512022,124.278539 162.197748,123.588987 160.928248,124.840031" id="Fill-3" fill="#BA7542"></path>
                <path d="M154.080157,27.3035433 C150.969452,29.8336503 149.929272,34.2613375 148.849767,37.9292093 C146.818567,44.8360881 143.703928,51.4805564 141.084801,58.181815 C136.428574,70.0764511 131.58358,81.8320488 126.70516,93.6131042 C126.205717,94.7273696 125.718071,95.8455516 125.246157,96.9696084 C125.04166,96.2195844 124.846995,95.4617273 124.666094,94.6921205 C126.467236,91.0536229 126.970612,86.7512661 128.146467,82.9091067 C130.146206,76.3566779 132.305217,69.8571229 134.578274,63.3947753 C136.593744,57.6609106 138.438144,51.8604641 140.618785,46.2088474 C143.027517,40.6845193 145.603386,35.2463559 148.657069,30.0001047 C148.810441,29.7318193 148.898925,29.4713672 148.942184,29.2167898 C149.144714,28.7644255 149.313817,28.3003114 149.451459,27.8342391 C149.86635,27.4034159 150.320569,27.0215499 150.83181,26.721932 C153.201216,25.3315481 151.256533,21.7694238 148.90679,22.7329011 C148.503696,22.3745345 147.992455,22.1414984 147.471382,22.2061218 C147.310145,22.2237464 147.15284,22.2570373 146.991602,22.2883699 C146.952276,22.241371 146.924748,22.1884973 146.883455,22.1395401 C145.941591,21.0859816 144.881749,20.8372791 143.814042,21.0526907 C143.342127,20.5298281 142.750267,20.1577535 142.085653,20.0539643 C139.083095,19.5918085 136.959478,22.172831 135.685308,24.9359741 C135.520137,24.9751399 135.351034,25.0280136 135.181932,25.1063451 C131.913921,26.5985599 129.762775,29.5790729 128.164164,32.825913 C127.566405,33.0315332 127.01977,33.4741061 126.713025,34.2182552 C122.308486,44.6461342 120.672515,55.835787 118.513504,66.870735 C117.20394,73.5719936 115.564036,82.8072758 119.290197,89.0953358 C118.659011,94.6216221 119.146656,100.198824 121.728424,105.241413 C121.84247,105.472491 121.989944,105.65657 122.151181,105.809317 C122.086293,106.281264 122.001742,106.757128 121.869999,107.23495 C121.201453,109.706308 124.626768,111.077109 125.952063,108.946493 C131.502962,100.059786 134.704118,89.921733 138.080276,80.0186749 C140.953058,74.2613107 143.837638,68.5059048 146.384012,62.6388765 C148.902858,56.8305968 150.957654,50.830405 153.869762,45.1964129 C155.930457,41.1956323 158.68526,37.4180964 157.812218,32.7338735 C157.670643,31.9740581 157.094514,31.4746949 156.412203,31.2553667 C156.667824,30.9674985 156.941141,30.69138 157.240021,30.4485524 C159.471785,28.6332203 156.292258,25.507794 154.080157,27.3035433" id="Fill-5" fill="#BA7542"></path>
                <path d="M133.15313,9.39856329 C130.535606,8.02528303 127.137591,10.5089585 124.333385,12.1804367 C123.832917,12.4276272 123.340394,12.6865886 122.851842,12.9514355 C122.458618,13.1280001 122.071351,13.3143739 121.676141,13.4830911 C121.376258,13.6125719 121.171702,13.8087547 121.034669,14.0304414 C119.16586,15.2408899 117.473803,16.6710632 116.178943,18.5387243 C116.05184,18.7231362 115.988289,18.9173573 115.954527,19.1056929 C114.359784,20.8733008 112.649853,22.5251607 111.009432,24.2260664 C109.065156,25.5640338 107.625319,27.5513665 106.489338,29.7682332 C106.203356,30.2253393 105.911417,30.6824455 105.655225,31.1650554 C105.504291,31.4436351 105.450669,31.7300621 105.462585,32.0047182 C104.576837,34.1293789 103.887701,36.3207419 103.232327,38.2452961 C103.131042,38.5376086 103.12707,38.8044173 103.172748,39.0457223 C101.975201,42.4514573 100.974266,45.9454746 99.8462284,49.3884844 C99.558261,50.2693456 99.997163,50.9285202 100.640621,51.2424128 C99.453004,56.435374 97.9952933,61.5577094 97.2148024,66.8389529 C97.153237,67.2744789 97.2426062,67.6570355 97.4253165,67.9748518 C96.5673724,73.9113462 96.1443582,79.8713825 96.0748489,85.8569226 C96.0470451,85.9707087 96.0291713,86.0903803 96.0291713,86.2178992 C95.9576759,88.7113838 96.0212273,91.1950592 96.1801059,93.6689255 C96.2992648,96.7489969 96.497863,99.8349539 96.7818584,102.928758 C96.827536,103.487879 97.1035875,103.897902 97.4709941,104.16471 C97.7152699,105.537991 97.9873494,106.907347 98.2773027,108.274742 C98.3825598,108.816207 98.4917888,109.35571 98.6228636,109.887365 C98.8909711,111.062501 99.1749665,112.231751 99.4728638,113.397077 C99.5542891,113.716855 99.7131676,113.966008 99.9197097,114.156305 C100.229523,115.068556 100.54728,115.980806 100.865037,116.89698 C100.853121,117.885742 100.96235,118.799954 101.671346,119.65335 C101.707093,119.692586 101.748799,119.712205 101.784547,119.749479 C101.893776,120.106532 102.004991,120.463585 102.102304,120.826524 C102.582911,122.601979 105.651253,122.290048 105.426837,120.381188 C105.406978,120.230128 105.38116,120.086914 105.3613,119.937815 L105.365272,119.937815 C105.3613,119.924082 105.357328,119.914273 105.353356,119.902502 C105.10908,118.129009 104.697982,116.500691 104.235248,114.737006 C104.084314,114.164152 103.708963,113.809061 103.254173,113.648191 C103.075435,113.147925 102.906626,112.647659 102.74179,112.143469 C102.598799,109.691182 102.195645,107.405652 101.230458,105.082846 C101.170878,104.945518 101.093425,104.825847 101.008028,104.712061 C100.303004,100.961044 99.7945929,97.1884466 99.5542891,93.3844603 C99.449032,90.5711976 99.4152703,87.7638204 99.4609479,84.9623286 C99.7648031,84.7681076 100.005107,84.4757951 100.100434,84.063811 C101.500551,78.3254613 101.913636,72.4301654 102.012935,66.5387931 C102.521346,62.5229292 103.073449,58.510989 103.689103,54.5068962 C105.210365,49.1746451 107.001721,43.9169435 109.12275,38.7632189 C109.549736,37.7234496 108.866558,36.9995347 108.002656,36.8111991 C109.523918,34.3726457 110.965741,31.9517488 111.754176,29.1090587 C111.76212,29.0855167 111.76212,29.0658984 111.764106,29.0423565 C112.451255,28.1320679 113.118545,27.2119701 113.769947,26.2644067 C114.087704,26.2192846 114.409433,26.0643001 114.701373,25.7621785 C116.655579,23.7454183 118.339691,21.4186892 120.415042,19.5588754 C121.648337,18.7329454 122.873688,17.9011299 124.134786,17.1105129 C124.762357,16.7161852 124.996703,16.1766823 124.960955,15.652874 C126.825792,14.8112493 128.680699,13.9343118 130.52369,13.0279468 C130.922872,12.8317639 131.163176,12.5590697 131.288293,12.2628335 C131.349859,12.2628335 131.411424,12.2628335 131.447172,12.2844137 C133.373574,13.2947556 135.081518,10.4089052 133.15313,9.39856329" id="Fill-7" fill="#842A12"></path>
                <path d="M43.5542331,7.27068878 C37.1975324,11.1228776 34.1250281,18.3734789 31.424469,25.1035141 C31.2424533,25.2429865 31.0841788,25.4433553 30.9654729,25.7164069 C27.8731843,32.9395066 25.3546409,40.5967387 25.1192075,48.4975564 C25.1112938,48.6782812 25.1370134,48.839362 25.176582,48.9906209 C25.0519409,50.0572902 24.9530193,51.1298527 24.860033,52.2043796 C22.0110915,65.8766052 22.4878935,80.923911 25.9264076,94.303441 C26.015437,94.6511398 26.189539,94.9163338 26.4131018,95.1088451 C27.1055528,100.805606 28.4152746,106.388431 30.0652865,111.918218 C30.7636729,116.931367 32.3563103,126.008861 37.1856618,128.76295 C39.0750639,129.841406 40.7686014,126.951773 38.8871129,125.875281 C37.1164167,124.867544 35.8996813,122.355076 35.0449988,119.571521 C35.4466204,119.210071 35.6820538,118.656111 35.5396067,117.952855 C35.0370851,115.473782 34.2912164,113.199007 33.2940869,110.900659 L33.2940869,110.888872 C33.2644104,110.831905 33.2446261,110.774937 33.216928,110.71404 C32.7005574,108.961795 32.2178201,107.203657 31.7766298,105.435697 C32.0733946,105.160681 32.2672809,104.767801 32.2316691,104.268843 C31.7924573,97.7922158 31.1316611,91.3116594 29.2383021,85.0766531 L29.2383021,65.6035536 C29.2383021,64.6724279 28.4963903,64.089001 27.7149098,63.9770302 C27.7228235,63.9004186 27.738651,63.8277358 27.738651,63.7413022 C27.7544784,60.0423366 27.8929686,56.3708725 28.1936902,52.7249457 C28.4884765,51.3243283 28.8089824,49.933533 29.1789491,48.5722036 C29.3490943,47.9377023 29.1651001,47.4171363 28.8168962,47.0556866 C29.1789491,44.4057107 29.6438806,41.7675212 30.2532375,39.1470113 C31.8043279,34.0454639 34.1329418,28.9596317 36.4279225,24.1645308 C36.4477068,24.1291716 36.471448,24.0977412 36.4951892,24.0584531 C38.3925051,20.2121575 40.8338896,16.6860591 42.8578251,12.906553 C42.9864232,12.6727894 43.0517114,12.4488478 43.0794095,12.2327638 C43.7204213,11.4725409 44.4188077,10.7594636 45.2497489,10.1603215 C46.9709844,8.91685618 45.4436352,6.12347905 43.5542331,7.27068878" id="Fill-9" fill="#842A12"></path>
                <path d="M102.270762,99.6846641 C101.961109,94.7155177 102.14303,89.5505042 101.171494,84.9789679 C101.065051,84.4716723 100.774751,84.1426157 100.414779,83.9604593 C100.467033,78.4115465 101.26826,72.8547991 101.23536,67.3000102 C101.5005,66.6869464 101.779188,66.0875934 102.104324,65.5019509 C103.151338,63.6235862 100.300595,61.9450058 99.2574511,63.8174945 C99.0910126,64.1171711 98.9477981,64.4285997 98.7968422,64.7341522 C98.3323627,64.978986 97.972391,65.4490669 97.9356197,66.1424361 C97.920137,66.3578898 97.9046544,66.5674676 97.8930424,66.7790039 C95.1332597,73.9771171 95.8628797,82.3700191 97.1189098,89.9755357 C97.2505124,90.9529121 97.4130802,91.9302886 97.6259667,92.907665 C97.633708,92.9487971 97.651126,92.9820945 97.662738,93.0232266 C97.9085251,94.8722113 98.2297901,96.71532 98.5936324,98.5525527 C98.8394195,101.16346 99.1606845,103.760657 99.5496861,106.350019 C98.9032854,110.249731 99.7083833,114.427575 100.921836,118.11771 C101.132787,118.756236 101.589526,119.106838 102.100453,119.226317 C102.315275,120.090091 102.52042,120.95974 102.754595,121.823514 C103.230687,123.598069 106.145296,123.296434 105.99434,121.380854 C105.653722,117.216721 105.229884,113.023208 104.217706,108.974637 C103.590658,105.868186 102.89781,102.78328 102.270762,99.6846641" id="Fill-11" fill="#6B1505"></path>
                <path d="M41.1991184,126.863668 C40.6264062,126.516655 40.1540662,125.97163 39.7506092,125.314855 C39.1621523,122.572083 38.2627382,119.97243 36.9598671,117.443355 C36.7551864,117.041448 36.4284846,116.808146 36.0604531,116.706198 C36.0328999,116.608172 36.0014106,116.508186 35.9718893,116.410159 C34.7182203,112.195035 33.3543386,108.011279 32.2856694,103.74126 C32.1734886,103.282498 31.8959889,102.962933 31.5594467,102.772762 C31.5850317,102.635525 31.6047126,102.492407 31.6007764,102.331644 C31.3429575,92.668227 28.1369499,83.4086773 27.8751948,73.757023 C27.8574821,73.1139715 27.5465249,72.6650118 27.123387,72.4081833 C27.2729613,65.8051421 27.8141842,59.2138641 27.8751948,52.6069019 C27.8948756,50.3895505 24.7892403,50.5405107 24.523549,52.6069019 C24.3365811,54.0576888 24.1555175,55.5065153 23.9823261,56.9573022 C23.9252517,57.0768941 23.8701454,57.2082492 23.8406241,57.3592094 C23.0947206,60.6372037 22.9825398,63.9053954 23.0986567,67.1735871 C22.9549867,70.3084632 22.9549867,73.4472604 23.1872205,76.6076233 C23.458816,80.3502616 24.3050918,83.9831105 25.232059,87.6081174 C25.5666331,90.9194406 26.0192923,94.2268427 26.6353024,97.5264028 C27.2572167,100.861252 28.233386,104.096115 29.3099275,107.299609 C30.0026928,111.677457 31.661787,115.69849 33.4271577,119.723443 C33.7105616,120.752718 34.0116784,121.776111 34.2694973,122.811267 C34.4230078,123.42295 34.8028479,123.775844 35.255507,123.920923 C35.8262511,125.263881 36.3792825,126.620563 36.8752395,128.006652 C37.2137498,128.949664 37.9931108,129.279032 38.707525,129.15944 C38.9574716,129.371176 39.2192267,129.57115 39.5085349,129.747597 C41.3644374,130.865095 43.0471486,127.975284 41.1991184,126.863668" id="Fill-13" fill="#6B1505"></path>
                <path d="M132.321436,10.0235562 C129.846942,9.86543423 127.364454,10.5139343 124.997895,11.650811 C122.347509,12.7696737 119.857025,14.4029332 118.17405,16.4044766 C114.188476,17.805557 112.875276,22.8214248 111.182307,26.4001844 C110.244877,28.3757078 113.18109,30.1070429 114.122516,28.1215118 C114.450317,27.4249747 114.836082,26.3061119 115.307795,25.0971797 C115.327783,25.0811673 115.34777,25.0731611 115.367758,25.0571488 C117.052732,23.6040283 118.539827,21.978775 119.853027,20.1974014 C124.69408,19.7050217 129.299276,15.6779163 133.18491,13.198004 C134.648019,12.2612817 134.008409,10.1276364 132.321436,10.0235562" id="Fill-15" fill="#B72E13"></path>
                <path d="M45.1071117,7.85014119 C44.5553392,7.00531505 43.4295618,6.57802423 42.6008926,7.58674274 C41.7277582,8.64618984 40.8667506,9.74661003 40.0259545,10.8704434 C37.1134854,13.6097873 35.0054317,17.5627152 33.7846605,21.2483424 C32.2061467,24.805197 31.1571727,28.5396017 31.0015446,32.3969257 C30.9166565,34.5392331 34.3586655,34.5294776 34.4455747,32.3969257 C34.5324839,30.2624227 34.938734,28.1591373 35.5733733,26.0987761 C35.7876146,25.9621991 35.9755811,25.7631869 36.1231246,25.4802775 C38.5383922,20.7664208 41.7600965,16.5091214 44.215787,11.8303844 C44.7251154,11.5318662 45.2485918,11.2762721 45.8064277,11.1026243 C47.8316144,10.4626636 47.0656007,7.46577456 45.1071117,7.85014119" id="Fill-17" fill="#B72E13"></path>
                <path d="M134.372438,54.2404387 C130.974545,62.0087973 128.229944,69.5672533 125.226346,77.3120714 C124.296661,79.695545 122.493342,82.290883 123.135038,85 C131.56792,64.572748 139.967944,44.1023384 149,24.2773304 C148.665623,24.2635985 148.634698,23.9379551 148.215276,24.0105383 C142.012865,32.1241573 138.902962,43.8630102 134.372438,54.2404387" id="Fill-19" fill="#3F1D1D"></path>
                <path d="M139.166238,84.1311914 C141.281851,79.5444233 144.10796,74.6854083 143.996821,70 C140.275644,79.1005425 135.445061,88.5265976 133,98 C135.387507,93.7643909 137.034748,88.7613612 139.166238,84.1311914" id="Fill-21" fill="#3F1D1D"></path>
                <path d="M135,110 C137.351974,108.824101 138.418976,103.635307 137.849439,101 C136.696304,103.779915 135.298831,106.295349 135,110" id="Fill-23" fill="#3F1D1D"></path>
                <path d="M100,148 C104.294918,145.063534 107.225006,140.677111 108,134 L107.225006,134 C105.711286,139.615028 102.56168,143.493763 100,148" id="Fill-25" fill="#3F1D1D"></path>
                <g id="Group-29">
                    <mask id="mask-2" fill="white">
                        <use xlink:href="#path-1"></use>
                    </mask>
                    <g id="Clip-28"></g>
                    <path d="M176.838574,117.101775 C176.226715,117.186258 176.5474,116.337505 176.047683,116.308034 C176.830704,115.677364 177.3619,114.791281 178.436096,114.447458 C178.21378,115.640034 177.1809,116.027081 176.838574,117.101775 Z M174.448193,113.916987 C171.666302,110.286211 167.312465,108.164328 160.6194,109.140787 C160.643009,108.18594 161.03452,107.604387 161.148628,106.747775 C167.125563,106.451105 170.525215,108.72034 173.918965,110.997434 C171.904357,106.720269 167.6784,104.653399 161.148628,104.889164 C161.876563,103.904846 161.01878,102.665116 161.148628,101.435211 C168.738824,102.266281 173.641563,105.785069 176.572976,111.260705 C176.061454,112.345222 175.097433,112.975893 174.448193,113.916987 Z M164.341704,119.229552 C165.45328,118.744269 165.663791,117.365046 166.73602,116.838505 C167.086215,115.594846 167.513139,114.425846 168.065976,113.384552 C169.010324,115.241199 165.65002,118.74034 164.341704,119.229552 Z M163.542943,146.851352 C163.493759,144.379752 163.542943,139.383505 163.542943,134.630881 C163.542943,129.104164 162.578922,124.070587 164.876835,122.149105 C165.187683,128.324175 164.703704,136.340175 165.667726,142.597764 C164.227596,143.283446 163.788867,144.971128 163.542943,146.851352 Z M161.683759,147.910328 C160.172802,147.087116 160.979433,143.664599 160.884998,141.536822 C160.676454,136.766516 160.562346,131.406799 160.353802,126.929234 C160.97353,126.748481 161.06403,126.047081 161.683759,125.868293 C161.461443,131.854752 161.195846,141.988705 161.683759,147.910328 Z M159.023846,148.442764 C158.256563,147.645093 159.023846,146.947622 159.023846,146.051716 C159.023846,144.081116 158.297878,140.959199 157.963422,138.084834 C157.426324,133.575834 156.253759,129.683752 158.75628,128.25934 C158.986465,128.208258 159.008107,128.361505 159.023846,128.522611 C159.252063,133.004105 158.720867,138.666387 159.023846,143.132164 C159.147791,145.018281 160.458074,147.346458 159.023846,148.442764 Z M149.452487,151.095116 C150.379128,146.212822 150.516846,139.318669 149.983683,133.835175 C150.729324,133.518858 151.512346,133.237905 152.37603,133.03554 C153.422683,138.104481 152.696715,144.935764 156.104237,147.645093 C156.495748,143.479916 154.048313,137.691893 153.971585,132.243764 C154.325715,131.974599 154.770346,131.801705 155.035943,131.448058 C156.476074,136.687928 155.874052,145.240293 158.225085,148.704069 C155.092998,149.297411 152.523585,150.444799 149.452487,151.095116 Z M148.923259,151.095116 C147.961204,151.824022 146.597802,152.14034 145.195052,152.425222 C145.122259,147.275728 144.992411,142.181246 144.396291,137.552399 C142.263639,140.244046 143.396857,149.236505 144.134628,152.690458 C142.8814,153.211105 141.211085,153.313269 139.873259,153.751399 C139.22402,148.387752 138.187204,143.403293 137.486813,138.084834 C141.01828,136.744905 145.307193,136.155493 148.388128,134.365646 C150.001389,139.100587 147.847096,146.018316 148.923259,151.095116 Z M97.0628239,163.578858 C96.5631065,158.950011 96.8405087,153.529387 96.264063,148.971269 C101.880965,144.132199 106.262346,138.059293 107.698541,129.055046 C115.341857,133.815528 124.141998,137.424693 135.889291,138.084834 C136.349661,143.731399 137.048085,149.144164 138.547237,153.751399 C125.806411,158.115011 111.853672,161.262469 97.0628239,163.578858 Z M92.2800957,145.256011 C92.2014,144.012352 93.9209,143.599764 94.6685087,142.861034 C99.2525304,138.377575 102.178041,131.550222 103.710639,123.742481 C103.633911,123.314175 103.960498,123.284705 103.980172,122.94874 L104.774998,122.94874 C105.69377,131.283022 100.629704,137.652599 95.9984652,142.861034 C95.0187043,143.963234 94.0192696,146.391611 92.2800957,145.256011 Z M93.60415,163.048387 C92.3824,158.692634 92.5948783,152.904611 91.7449652,148.175564 C92.3666609,148.260046 92.7404652,148.594046 93.60415,148.442764 C93.6356283,152.287693 93.5864435,158.325234 93.60415,163.048387 Z M59.5722152,135.691822 C55.5528348,135.122058 50.9707804,135.204575 48.4013674,134.098446 C45.8614652,133.015893 42.9025087,127.331999 41.4840196,124.805387 C58.3347261,128.536364 78.9411826,129.864505 99.1915413,129.322246 C98.4695087,132.228046 96.95265,134.345999 95.7328674,136.754728 C84.3947913,137.167316 70.5345196,137.251799 59.5722152,135.691822 Z M36.4317587,111.260705 C55.1023022,114.137034 76.2065087,115.972069 97.5940196,115.245128 C99.0853022,118.657822 102.569552,121.748305 100.521498,126.400728 C80.0822696,127.913552 58.3957152,126.18854 40.6852587,123.210046 C38.8673891,119.630352 37.5118565,115.588952 36.4317587,111.260705 Z M14.6251935,141.800093 C14.497313,130.011858 14.5248565,119.618564 14.6251935,107.810681 C16.0082696,108.11914 17.1847696,106.840116 17.8182696,107.278246 C21.3989217,118.312034 26.5711935,127.746552 35.6369326,133.300775 C36.7189978,133.373469 36.488813,134.756622 37.2305196,135.165281 C38.5978565,135.300846 39.3631717,136.043505 40.6852587,136.228187 C31.7198565,137.807811 23.8817696,140.511246 14.6251935,141.800093 Z M13.0296391,104.623928 C13.3149109,103.297752 12.6991174,101.975505 12.5004109,99.8437988 C16.714563,100.150293 20.9267478,100.456787 24.9992478,100.902775 C25.5343783,103.028587 25.7370196,105.48054 26.5948022,107.278246 C24.3460739,108.213446 20.2165196,106.614175 19.4157913,104.358693 C17.6805522,105.317469 15.5656065,104.364587 13.0296391,104.623928 Z M11.9652804,141.273552 C10.4051391,140.055434 11.2668565,136.167281 11.1704543,133.835175 C10.8399326,126.035293 10.6136826,116.596846 10.1100304,109.140787 L10.1100304,108.077881 L10.6353239,108.077881 C12.5535304,108.128964 11.6229543,111.142822 11.6996826,112.858011 C12.0931609,121.726693 12.4846717,132.110164 11.9652804,141.273552 Z M21.2769435,79.12794 C21.6802587,82.3520224 22.1406283,85.5210929 22.3373674,88.9534341 C18.4320957,89.2127753 14.3222152,89.2658224 10.3716935,89.4858694 C9.4607913,86.8531635 9.09485652,83.6801635 8.77613913,80.4580459 C13.3522913,80.4226812 16.9762261,79.4422929 21.2769435,79.12794 Z M8.24691087,68.77394 C8.70728043,68.6206929 9.80705217,69.0902576 9.84049783,68.5047753 C10.8556717,68.5578224 10.0018239,70.4694812 10.6353239,70.8977871 C11.4163783,70.6129047 11.5009761,69.6325165 11.4360522,68.5047753 C14.5740413,68.2749047 17.3382261,67.6756694 20.741813,67.7129988 C20.5509761,71.0903282 21.0428239,73.7878694 21.0113457,77.0040929 C16.5001174,77.1082224 13.068987,78.2811518 8.5105413,78.3341988 C8.30003043,75.2672929 8.15444348,72.1355518 8.24691087,68.77394 Z M5.58699783,75.4087518 C5.76012826,78.9923753 6.91695435,82.6054694 6.11819348,86.3010812 C5.29188913,79.5582106 2.29751957,72.4675871 2.65951957,65.3219518 C3.03922609,57.8207047 5.38435652,50.2330106 6.91695435,43.2740224 C8.48496522,36.1499988 11.5777043,29.9336694 14.8907913,25.22034 C8.36888913,37.5036812 4.61510652,56.0131753 5.58699783,75.4087518 Z M19.946987,22.5620929 C19.0439543,24.8490106 18.6681826,29.9651047 14.8907913,30.2657047 C15.9846609,27.6369282 17.2752696,25.2164106 18.6170304,22.8332224 C19.0046065,22.6839047 19.9883022,23.1397165 19.946987,22.5620929 Z M23.6692913,16.7229871 C23.3741826,17.9352106 21.8710957,20.2417753 20.20865,20.9746106 C20.1043783,19.3517635 22.5183674,17.9646812 23.6692913,16.7229871 Z M39.359237,9.55377529 C38.1296174,11.5106224 36.5320957,13.1079282 35.3713348,15.1276459 C32.1703891,16.1846576 28.9812478,17.2455988 25.7960413,18.3163635 C28.0742804,13.1531165 33.657737,11.2945047 39.359237,9.55377529 Z M45.7375196,7.69123412 C41.9463565,12.9311047 37.3997152,19.7250576 34.3069761,26.5504459 C33.4413239,26.5720576 32.6740413,26.6879753 32.1782587,27.0769871 C33.0006283,21.8547988 36.3707696,16.5736694 39.8904326,12.4713635 C41.7850304,10.2669635 42.9025087,8.46139882 45.7375196,7.69123412 Z M49.4617913,6.89749294 C72.889487,1.63404588 103.976237,3.19009294 126.0484,8.75610471 C124.661389,13.5087282 115.8219,10.3828812 110.362389,9.55377529 C106.293824,8.93292824 102.189846,7.71677529 98.3927804,7.42992824 C79.541237,5.97801059 59.4285957,8.01934 45.2082913,12.4713635 C46.3493783,10.3396576 47.8937804,8.60089294 49.4617913,6.89749294 Z M134.8269,11.4123871 C133.906161,12.4654694 132.749335,11.9762576 131.100661,11.9448224 C119.937683,17.5265518 111.788748,26.1162459 107.698541,38.7650224 C106.980443,38.9300576 105.589498,38.4290576 105.306193,39.0302576 C107.972009,26.3166459 118.99727,15.4302106 130.835063,10.6147165 C131.74203,10.2492812 133.587443,11.1884106 134.8269,11.4123871 Z M144.134628,14.6011047 C142.352172,16.0058694 139.473878,16.3143282 137.748476,17.7878576 C136.030943,16.8467635 134.079291,16.13554 132.16502,15.3948459 C135.385639,13.2336694 140.461509,12.2768576 144.134628,14.6011047 Z M150.516846,17.7878576 C146.892911,18.6876929 141.394052,17.7014106 139.082367,19.9077753 C138.777422,19.8586576 138.930878,19.6405753 139.082367,19.6445047 C141.744248,17.5933518 147.024726,15.13354 150.516846,17.7878576 Z M138.281639,129.322246 C122.23953,118.202011 109.451487,93.0911047 115.41465,65.3219518 C115.353661,72.2259282 114.865748,78.9904106 115.41465,85.7686459 C116.445563,98.5215518 121.609965,107.714411 127.376389,116.838505 C129.882846,120.797387 134.224878,126.05494 138.014074,127.72494 C143.965433,130.357646 151.842867,129.074693 157.160726,125.868293 C158.006704,125.775952 155.83077,127.041222 154.766411,127.72494 C152.496041,129.196505 149.057041,131.039399 144.663857,130.648422 C142.377748,130.444093 140.587422,129.072728 138.281639,129.322246 Z M127.376389,125.070622 C128.9444,124.61874 132.568335,128.390975 134.024204,129.583552 C136.168661,131.339999 138.059324,132.721187 140.945487,133.300775 C135.147585,135.526787 126.811748,133.943234 121.792933,131.974599 C118.812335,130.809528 115.18053,129.442093 114.082726,127.463634 C119.272704,127.153211 123.791802,126.109952 127.376389,125.070622 Z M119.134987,113.384552 C121.973933,116.306069 124.10265,119.930952 126.581563,123.210046 C121.966063,123.999858 117.700759,125.143316 112.221574,125.070622 C110.33878,122.086234 108.07628,119.473175 107.434911,115.245128 C111.381498,114.671434 115.715661,114.484787 119.134987,113.384552 Z M104.241835,102.498116 C107.545085,102.171975 110.92703,101.912634 114.082726,101.435211 C115.168726,104.865587 116.64427,107.906952 118.340161,110.730234 C114.995596,111.905128 110.649628,112.081952 106.638117,112.588846 C105.725248,109.341187 104.656954,106.24874 104.241835,102.498116 Z M99.4610739,62.1332341 C99.9804652,62.66174 100.973998,62.3021988 101.581922,62.1332341 C98.7882261,81.3382341 98.4242587,106.234987 105.839357,120.292458 C104.379552,120.072411 104.021487,120.954564 102.650215,120.822928 C98.4891826,104.030587 94.1392804,80.5700341 99.4610739,62.1332341 Z M95.469237,62.3984694 C90.5035413,62.6990694 82.8031717,62.1450224 77.1193783,62.1332341 C61.8307804,62.0978694 45.9991826,63.96434 31.6431283,64.7895165 C31.8083891,61.7677988 31.9579109,58.7283988 32.1782587,55.7597282 C52.6863457,53.9030812 74.925737,52.7576576 97.3284217,53.6358812 C96.6398348,56.4905988 96.3644,59.75594 95.469237,62.3984694 Z M33.7718457,101.435211 C52.843737,102.248599 73.7275957,105.109211 93.3444543,102.765316 C94.5032478,106.030658 95.4298891,109.531764 96.5335957,112.858011 C75.5494,113.42974 54.9134326,111.413952 35.900563,109.140787 C35.0054,106.759564 34.3915739,104.095422 33.7718457,101.435211 Z M23.9348891,97.7160224 C19.5476065,97.8535518 15.6206935,97.5215165 11.6996826,97.1894812 C11.5659,95.0224106 10.7750087,93.5135165 10.6353239,91.3444812 L22.6049326,91.3444812 C23.2561391,93.2620341 23.6319109,95.4526812 23.9348891,97.7160224 Z M13.2991717,56.2901988 C13.3188457,53.9227282 13.9070957,52.1151988 14.3595957,50.1819282 C16.9801609,49.5217871 19.6853239,48.9500576 22.8705304,48.8557518 C22.4337696,50.9835282 22.2862152,53.4020812 21.5405739,55.2292576 C18.5166935,55.3117753 16.281737,56.1742812 13.2991717,56.2901988 Z M12.7660087,58.6792812 C15.4711717,58.1075518 18.4242261,57.7794459 21.5405739,57.6163753 C20.9503565,59.7736224 21.0959435,62.6637047 20.741813,65.0547518 C17.8064652,65.4869871 14.6094543,65.6539871 11.9652804,66.3809282 C11.485237,64.13134 12.5200848,61.0958694 12.7660087,58.6792812 Z M14.6251935,39.5607282 C13.8598783,40.0322576 12.6223891,40.0361871 11.9652804,40.6216694 C11.7311609,37.9928929 13.2067043,34.7786341 14.0939978,32.3895518 C15.0363783,32.2697047 15.6324978,31.8021047 16.7578457,31.8610459 C16.126313,34.5075047 15.4436283,37.0989518 14.6251935,39.5607282 Z M24.7316826,40.0911988 C24.180813,42.1973635 23.9584978,44.6316341 23.1361283,46.4666694 C20.1889761,46.6218812 17.5644761,47.0953753 15.1583565,47.7928459 C14.878987,46.0029988 16.0613891,43.3860106 16.488313,41.41934 C19.2092152,40.9497753 21.756987,40.3112459 24.7316826,40.0911988 Z M27.6591609,28.6723282 C28.3969326,31.0240812 26.1600087,34.9534929 25.2609109,37.4368812 C22.1406283,37.4152694 20.0610957,38.4369165 17.2870739,38.7650224 C17.891063,35.9181635 18.9141065,33.4838929 19.6774543,30.8001047 C22.1484978,29.9022341 25.1487696,29.52894 27.6591609,28.6723282 Z M28.9891174,26.2812812 C26.0419652,26.7960341 23.2581065,27.4679635 20.741813,28.4070929 C20.6493457,26.1869753 22.4947587,23.6092812 23.4017261,21.5011518 C26.3862587,20.2398106 29.5694978,19.1611871 32.7114217,18.0491635 C31.9697152,20.2417753 29.9610087,23.4442459 28.9891174,26.2812812 Z M27.3896283,41.1541047 C27.5824326,40.55094 27.6276826,39.7964929 27.9247587,39.2954929 C28.996987,39.4782106 29.4376826,39.0420459 30.3171065,39.0302576 C30.5217152,40.0302929 29.9905196,40.2994576 30.0495413,41.1541047 L27.3896283,41.1541047 Z M28.1883891,52.57494 C27.4466826,51.9874929 26.7443239,51.3587871 25.2609109,51.5120341 C25.5599543,50.7457988 25.7409543,49.8656106 25.7960413,48.8557518 L28.4579217,48.8557518 C28.5779326,50.3017753 27.981813,51.0346106 28.1883891,52.57494 Z M28.9891174,46.7319047 C28.0860848,46.6552812 27.458487,46.3075282 26.3292043,46.4666694 C26.3901935,45.2878459 26.870237,44.5314341 26.8604,43.2740224 C27.8854109,43.1345282 28.1588783,43.7534106 29.248813,43.5471165 C29.4376826,44.8811518 28.8041826,45.39394 28.9891174,46.7319047 Z M30.852237,37.1716459 C30.0613457,36.8062106 29.6914761,37.3248929 28.4579217,37.1716459 C28.5956391,36.4250576 28.841563,35.7884929 28.9891174,35.0458341 C29.6521283,35.2678459 30.4095739,35.3955518 31.3775304,35.3149988 C31.5368891,36.2639518 31.0666826,36.5979518 30.852237,37.1716459 Z M30.5827043,76.7408224 C30.9820848,73.5992576 31.3637587,70.4360812 31.3775304,66.9153282 C52.2594217,65.96834 73.0468783,64.1784929 94.9380413,65.0547518 C94.4816065,68.1432694 93.458563,70.6580929 93.0788565,73.81734 C72.0946609,73.9529047 49.9182261,74.1867047 30.5827043,76.7408224 Z M92.010563,90.8100812 C91.829563,94.2758224 92.6204543,96.7552812 92.8093239,99.8437988 C72.7478348,101.496116 52.2594217,99.3703047 32.9770196,98.5156576 C32.7271609,95.9359988 31.9323348,93.89074 31.9126609,91.0812106 C52.0174326,90.7275635 71.0519435,90.8827753 92.010563,90.8100812 Z M92.010563,88.6901635 C72.6514326,89.7550341 51.5511609,88.2991871 31.6431283,89.2206341 C31.1257043,85.9317165 30.7951826,82.4600812 30.852237,78.5994341 C49.9575739,76.3518106 71.2172043,76.2457165 92.2800957,75.9431518 C93.006063,78.92754 91.4616609,84.1222224 92.010563,88.6901635 Z M31.6431283,32.6587165 L29.7878783,32.6587165 C30.0456065,31.0535518 30.9447043,30.0947753 31.1139,28.4070929 C31.9165957,28.5819518 32.0208674,29.4503518 32.7114217,29.7352341 C32.5737043,30.93174 32.1999,31.8806929 31.6431283,32.6587165 Z M99.7266717,44.0756224 C99.0912043,46.3645047 98.5698457,48.76734 97.8615848,50.9795988 C74.7112913,50.1485282 53.412313,51.6358106 32.4458239,53.6358812 C32.4281174,51.1407047 32.7389652,48.9697047 33.2465522,46.9932106 C53.6228239,44.4665988 76.9698565,42.5097518 99.7266717,44.0756224 Z M103.445041,32.6587165 C102.770226,35.6981165 101.24353,37.8907282 100.787096,41.1541047 C78.8408457,40.7650929 53.5421609,41.5843753 33.5062478,44.8693635 C33.8485739,42.2897047 34.3069761,39.8318576 35.1018022,37.7021165 C56.4007804,33.5840929 79.3759761,32.2913165 103.445041,32.6587165 Z M103.980172,42.7494459 C103.948693,41.9262341 104.306759,41.4763165 104.5094,40.8869047 C104.891074,41.5725871 106.32727,41.1933988 106.374487,42.2170106 C105.815748,42.6335282 104.605802,42.3997282 103.980172,42.7494459 Z M103.445041,90.8100812 C105.996748,90.4446459 108.967509,90.48394 111.422813,90.01634 C111.491672,93.9850459 112.713422,95.3996341 113.285933,99.0461282 C109.809552,99.0245165 107.084715,99.7534224 103.710639,99.8437988 C103.226661,97.2268106 103.525704,93.8298341 103.445041,90.8100812 Z M102.915813,46.2033988 C102.695465,45.4469871 103.28765,45.5098576 103.181411,44.8693635 C103.891639,45.0540459 104.533009,45.2878459 105.040596,45.6670341 C105.205857,46.7142224 103.584726,45.9813871 102.915813,46.2033988 Z M110.88965,73.81734 L104.241835,73.81734 C104.359878,70.7504341 104.824183,68.0253871 105.306193,65.3219518 C107.680835,65.2531871 109.35902,65.8759988 111.692346,65.8504576 C111.249683,68.3358106 111.043107,71.0471047 110.88965,73.81734 Z M111.157215,87.3620224 C108.225802,87.1753753 105.963302,87.6665518 103.445041,87.8944576 C103.384052,83.8510929 104.090346,80.5700341 103.980172,76.4755871 C106.303661,76.5757871 108.410737,76.9490812 110.624052,76.4755871 C111.3874,79.5208812 110.397802,84.3127988 111.157215,87.3620224 Z M101.851454,50.1819282 C101.65865,49.3724694 102.122954,49.2172576 102.117052,48.5905165 C102.492824,49.3626459 104.314628,48.6985753 103.980172,50.1819282 L101.851454,50.1819282 Z M100.787096,54.9640224 C100.67102,54.0484694 100.893335,53.4747753 101.052693,52.8382106 C101.904574,52.7792694 102.178041,53.30974 103.181411,53.1034459 C103.395857,54.0248929 102.783998,54.1231282 102.915813,54.9640224 L100.787096,54.9640224 Z M102.117052,60.2726576 L99.7266717,60.2726576 C99.5141935,59.0073871 100.141791,58.5672929 99.9903022,57.3531047 L102.380683,57.3531047 C102.534139,58.5672929 101.908509,59.0073871 102.117052,60.2726576 Z M113.285933,54.4335518 C113.051813,57.6497753 112.225509,60.2805165 111.955976,63.4613753 C109.915791,63.1037988 107.452617,63.1784576 105.573759,62.6637047 C105.878704,59.6066224 106.512204,56.8737165 107.169313,54.1643871 C108.766835,54.6928929 111.265422,54.3195988 113.285933,54.4335518 Z M115.945846,44.8693635 C115.418585,47.2702341 114.584411,49.3567518 114.082726,51.7753047 C112.841302,51.8931871 109.778074,51.6947518 107.698541,51.7753047 C108.184487,49.0757988 108.721585,46.4234459 109.563628,44.0756224 C111.971715,44.0559753 113.97452,44.4528459 115.945846,44.8693635 Z M115.945846,65.0547518 C114.127976,62.9367988 116.433759,58.6124812 116.475074,55.7597282 C118.27327,58.0387871 115.591715,61.6813518 115.945846,65.0547518 Z M120.464943,45.1385282 C119.315987,47.3507871 118.570346,49.9756341 117.539433,52.30774 C117.844378,50.30374 118.147357,46.0108576 120.464943,45.1385282 Z M121.263704,33.4504929 C120.921378,36.1401753 118.385411,38.8848694 117.539433,41.9517753 C115.034943,41.7965635 112.990824,41.1816106 110.362389,41.1541047 C111.383465,38.1952576 112.672107,35.4957518 113.817128,32.6587165 C116.433759,32.7864224 118.59002,33.3797635 121.263704,33.4504929 Z M125.517204,33.9829282 C123.835085,36.9948224 122.150998,40.0027871 120.998107,43.5471165 C120.340998,40.5096812 123.783933,37.1834341 124.722378,33.9829282 L125.517204,33.9829282 Z M126.847161,25.4855753 C126.609107,27.5760224 123.64228,29.1693988 122.859259,31.5938459 C120.337063,31.2814576 118.119813,30.6566812 115.15102,30.8001047 C115.961585,28.0711282 117.946683,26.5131165 119.134987,24.1574341 C121.8854,24.4207047 124.025922,25.2930341 126.847161,25.4855753 Z M131.629889,24.9551047 C130.516346,27.2931047 127.842661,30.3678694 125.786737,32.6587165 C127.116693,29.4699988 129.564128,27.4070576 131.629889,24.9551047 Z M129.505107,23.3617282 C126.796009,22.9707518 124.226596,22.4383165 121.529302,22.0335871 C123.577357,20.0079753 125.887074,18.2417047 128.440748,16.7229871 C129.790378,18.2102694 132.37553,18.4637165 134.297672,19.3792694 C132.833933,20.8370812 130.966878,21.8999871 129.505107,23.3617282 Z M39.6248348,23.3617282 C40.6695196,20.0649518 42.145063,17.20434 43.8783348,14.6011047 C64.7543239,8.60285765 97.22415,8.04488118 118.873324,13.8014694 C119.312052,14.4773282 116.793791,16.0058694 115.676313,16.9882224 C114.293237,18.20634 112.882617,19.50894 111.955976,20.7054459 C89.5159109,15.1374694 60.6365739,20.2869635 39.6248348,23.3617282 Z M38.5604761,25.22034 C59.8240413,23.1239988 86.3798891,18.1218576 109.823324,22.2988224 C108.878976,24.6407518 105.69377,27.0082224 104.774998,30.2657047 C79.6710848,28.9218459 55.7141609,31.0221165 35.900563,35.84154 C35.77465,33.4092341 36.5655413,29.5977047 38.5604761,28.4070929 C37.7381065,27.3343635 38.3519326,26.5759871 38.5604761,25.22034 Z M10.1100304,48.8557518 C9.97624783,46.5118576 10.896987,45.2190812 10.9009217,43.0127165 C11.7665739,42.6335282 12.7148565,42.3466812 13.8264326,42.2170106 C13.3680304,44.1463518 12.6184543,45.7888459 12.5004109,48.0580812 C11.8688783,48.4903165 10.9619109,48.6474929 10.1100304,48.8557518 Z M10.3716935,66.6461635 C9.51391087,66.5891871 9.24437826,67.1157282 8.24691087,66.9153282 C8.79187826,64.6264459 8.31183478,61.3139518 8.77613913,58.9464812 L10.6353239,58.9464812 C10.6864761,61.6479518 10.1710196,63.79734 10.3716935,66.6461635 Z M10.9009217,56.8206694 C10.0667478,56.6929635 9.96444348,57.2980929 9.04173696,57.0878694 C9.03386739,54.77934 9.1460087,52.5847635 9.84049783,50.9795988 C13.5096826,49.9441988 10.3362804,54.5632224 10.9009217,56.8206694 Z M37.4961174,126.400728 C37.5118565,126.312316 37.4803783,126.22194 37.4961174,126.129599 C32.707487,118.868046 28.3280739,109.804858 27.6591609,99.3133282 C23.909313,87.5879635 22.4790196,69.94294 24.7316826,55.4944929 C25.5029,54.5769753 27.594237,53.5789047 27.9247587,53.1034459 C25.5993022,69.4556929 28.3575848,86.7981518 30.5827043,101.969611 C31.2103022,106.24874 32.1349761,110.948316 33.5062478,115.245128 C34.5942152,118.646034 37.7577804,125.096164 37.4961174,126.400728 Z M27.6591609,120.555728 C25.2117261,117.425952 23.8699652,113.188081 22.3373674,109.140787 C24.2575413,108.991469 25.5461826,109.474787 27.1240304,109.667328 C28.3615196,113.657646 29.630487,117.608669 31.6431283,120.822928 C30.5177804,121.585234 29.1642152,120.296387 27.6591609,120.555728 Z M33.2465522,123.479211 C34.1613891,127.337893 38.1984761,129.504964 39.359237,132.243764 C35.4283891,129.793775 32.3651609,126.481281 29.248813,123.210046 C30.082987,122.74834 31.647063,123.821069 33.2465522,123.479211 Z M161.949357,112.06034 L164.876835,112.06034 C163.519335,116.36894 160.56628,119.086128 157.430259,121.620599 C158.374607,118.930916 161.522433,116.146928 161.949357,112.06034 Z M149.983683,102.232881 L149.983683,106.21534 C147.699541,106.234987 145.244237,106.087634 143.335867,106.48254 C143.196183,105.132787 142.716139,102.951964 143.335867,101.702411 C145.238335,102.191622 147.512639,102.313434 149.983683,102.232881 Z M147.054237,83.3775988 C146.513204,85.1419047 146.867335,87.4013165 147.8589,88.4249282 C149.576433,88.8532341 151.646128,88.1871988 153.971585,88.4249282 C154.689683,92.5901047 152.246183,94.5096224 153.440389,98.7789282 C150.924096,99.1089988 146.013487,99.7534224 142.535139,99.0461282 C140.142791,101.376269 139.438465,107.580811 141.736378,109.936493 C143.64278,111.879587 147.538215,110.881516 150.782443,111.260705 C154.233248,111.665434 157.176465,112.757811 159.558976,111.79314 C157.676183,115.712728 155.401878,120.536081 151.307737,122.683505 C147.650357,124.603022 143.747052,126.329999 139.345998,124.276881 C138.425259,123.844646 137.386476,122.378975 136.156857,121.353399 C132.910661,118.657822 128.423041,115.229411 126.847161,111.260705 C127.73052,109.223305 128.875541,107.443281 128.971943,104.623928 C127.207193,104.492293 126.723215,107.838187 125.786737,109.402093 C121.236161,101.393952 118.200476,90.6529047 118.603791,78.5994341 C118.953987,68.0902224 121.074835,56.9326576 123.392422,46.9932106 C125.725748,36.97714 131.019998,28.6880459 136.95365,24.1574341 C132.688346,35.5664812 127.803313,46.3507518 123.392422,57.6163753 C125.973639,55.64774 126.573693,52.0307165 127.91152,49.1209871 C131.793183,40.6531047 135.318748,30.7549165 139.611596,22.2988224 C144.937324,19.6837988 150.4834,21.9530341 153.440389,25.22034 C143.050596,48.3979753 132.676541,71.57954 124.722378,97.1894812 C126.400563,96.9183518 126.428107,94.6294694 126.847161,93.4702929 C134.881987,71.2553635 145.372117,48.3704694 155.035943,27.3461518 C156.676748,29.2322694 159.012041,31.7706694 159.023846,34.5133988 C159.031715,37.7256929 154.620824,44.3880106 153.176759,47.2623753 C150.900487,51.7792341 148.9449,56.1664224 148.388128,60.8070576 C150.371259,59.6753871 150.721454,57.1487753 151.57727,55.2292576 C154.109302,49.5375047 157.617161,43.4370929 160.6194,37.9693165 C161.203715,40.7375871 162.106748,43.4351282 162.748117,46.2033988 C163.397357,49.0109635 164.743052,52.3136341 164.341704,54.9640224 C164.127259,56.4061165 162.48252,58.2490106 161.683759,60.0093871 C159.370107,65.0842224 156.798726,70.4675165 155.569107,76.2064224 C159.494052,71.4557635 161.526367,64.8091635 164.341704,58.9464812 C165.933324,65.7581165 165.836922,75.0983282 165.406063,83.1143282 C160.995172,80.7193518 151.307737,80.6761282 147.054237,83.3775988 Z M158.225085,88.1577282 C160.572183,88.5290576 163.739683,88.6744459 164.607302,86.8295871 C165.014552,90.6037871 163.361943,94.6196459 163.277346,98.7789282 C162.01428,98.6787282 161.361107,99.3408341 160.353802,98.7789282 C160.680389,94.3720929 157.40665,92.1794812 158.225085,88.1577282 Z M157.695857,98.5156576 L155.569107,98.5156576 L155.569107,94.5292694 C157.825704,94.3072576 157.701759,96.4743282 157.695857,98.5156576 Z M149.452487,86.0338812 C149.456422,85.4091047 148.992117,85.2538929 149.186889,84.43854 C153.322346,84.1261518 160.035085,83.5053047 162.748117,85.5034106 C158.463139,85.7175635 154.398509,85.9454694 149.452487,86.0338812 Z M153.705987,108.606387 C154.182096,107.457034 156.523291,108.938422 157.430259,107.810681 C158.502487,109.626069 154.906096,108.946281 153.705987,108.606387 Z M153.176759,105.952069 C153.391204,103.869481 152.78328,102.134646 153.176759,100.63754 C155.209074,101.696516 156.834139,99.6532224 159.289443,100.63754 C159.539302,103.014834 158.744476,104.342975 158.494617,106.21534 C156.631498,106.21534 155.220878,105.767387 153.176759,105.952069 Z M154.237183,22.8332224 C159.562911,25.6191753 161.982802,31.1773282 164.078074,38.4978224 C165.329335,42.8948341 166.90915,47.6788929 168.065976,52.30774 C170.698346,62.8326694 170.698346,75.1828106 170.721954,85.5034106 C170.735726,90.6725518 169.936965,95.76114 168.331574,99.8437988 C165.291954,99.7200224 167.009487,95.59414 167.267215,93.2011282 C168.707346,79.8882812 168.569628,63.2452576 165.937259,50.4471635 C164.615172,44.0068576 162.571052,39.4742812 161.683759,32.9219871 C158.793661,31.0849871 158.433628,27.1123518 156.104237,24.6879047 C155.00053,23.5483753 153.418748,23.3636929 152.37603,22.0335871 C151.827128,21.5541988 153.532857,22.4599282 154.237183,22.8332224 Z M174.178661,92.9398224 C173.676976,95.9831518 173.730096,99.4705047 171.786313,101.702411 C173.169389,88.4111753 173.275628,70.1649518 171.255117,56.5554341 C169.633987,45.6139871 165.90578,35.6686459 162.48252,27.6113871 C171.843367,40.51754 178.16853,68.9153988 174.178661,92.9398224 Z M174.983324,102.765316 C174.906596,102.069811 175.555835,100.490187 175.77815,99.3133282 C176.557237,95.2149518 176.799226,91.3012576 177.108107,87.3620224 C178.375107,71.1512341 176.972357,57.7499753 173.38777,44.6080576 C168.549954,26.8923047 160.235759,17.3477635 143.865096,11.1491165 C132.088291,6.68334 117.913237,3.68323412 103.980172,1.58689294 C84.1213239,-1.40535412 64.6618565,0.264645882 46.8018783,4.50841059 C41.9994761,5.64597529 36.6422696,7.02126941 32.1782587,9.01937529 C27.7319543,11.0135518 22.8508565,13.0332694 19.4157913,15.3948459 C9.79131304,22.01394 5.07941087,33.0968459 2.65951957,46.4666694 C1.46334565,53.0936224 -0.000393478261,60.0015282 -0.000393478261,66.9153282 C-0.000393478261,78.1318341 2.51983478,87.1419753 5.05383478,96.3898459 C5.80931304,99.1502576 7.86523696,102.016764 8.24691087,104.889164 C8.61087826,107.673152 7.60160652,111.142822 7.44618261,114.447458 C6.95433478,125.267093 8.00492174,134.919693 8.24691087,143.662634 C14.59765,147.189281 22.1366935,144.760905 28.7235196,143.132164 C35.2395196,141.515211 42.164737,138.061258 48.6669652,138.084834 C51.9092261,138.094658 55.4288891,139.304916 59.03315,139.678211 C70.6033783,140.876681 81.8076717,141.782411 93.0788565,139.678211 C92.282063,141.860999 89.4155739,142.992669 89.0850522,145.517316 C88.9434,146.578258 89.71265,149.059681 89.8818457,151.095116 C90.3009,156.04814 89.7854435,165.404069 93.3444543,166.765611 C95.2036391,167.478799 100.094574,166.406069 103.445041,165.702705 C120.102943,162.201599 135.519422,158.539387 150.516846,154.018599 C156.704291,152.150164 163.769193,151.619693 167.800378,147.645093 C167.623313,142.049611 167.554454,136.849034 167.267215,130.913658 C167.09015,127.182681 166.889476,122.563658 167.532813,120.292458 C168.073846,118.374905 170.556693,117.286458 170.993454,115.510364 C173.037574,117.449528 174.221943,120.251199 176.838574,121.620599 C181.322259,118.429916 181.304552,112.863905 178.705628,108.341152 C177.660943,106.531658 175.185965,104.610175 174.983324,102.765316 Z" id="Fill-27" fill="#3F1D1D" mask="url(#mask-2)"></path>
                </g>
            </g>
        </g>
    </g>
</svg>